<?xml version="1.0" encoding="UTF-8"?>
<svg version="1.1" xmlns="http://www.w3.org/2000/svg" width="331" height="330">
<path d="M0 0 C1.4143483 -0.01210762 1.4143483 -0.01210762 2.85726929 -0.02445984 C4.85599963 -0.03826257 6.85475317 -0.04900169 8.85351562 -0.05688477 C10.85847083 -0.06829848 12.8633983 -0.08857734 14.86816406 -0.1184082 C32.58808187 -0.38141527 49.22042162 1.6199486 66.0234375 7.48828125 C66.88702881 7.78347656 67.75062012 8.07867188 68.64038086 8.3828125 C76.90189916 11.29909109 84.60737986 15.02335596 92.2734375 19.23828125 C93.29308594 19.7796875 94.31273437 20.32109375 95.36328125 20.87890625 C132.1685737 41.23297402 160.37263257 76.9763179 172.2734375 117.23828125 C175.62768334 129.76566963 178.39344526 142.24816407 178.4765625 155.26171875 C178.48362213 156.00092056 178.49068176 156.74012238 178.49795532 157.50172424 C178.72246529 187.89770206 178.72246529 187.89770206 175.2734375 201.23828125 C175.07476074 202.05184082 174.87608398 202.86540039 174.67138672 203.70361328 C168.8426263 227.24132672 158.6198437 249.36934521 143.2734375 268.23828125 C142.82629395 268.79225586 142.37915039 269.34623047 141.91845703 269.91699219 C116.1113447 301.68640682 81.34142948 321.39319109 41.2734375 329.23828125 C40.39244385 329.41713867 39.5114502 329.59599609 38.60375977 329.78027344 C34.24129369 330.38022845 29.94595523 330.44007553 25.546875 330.4765625 C24.60397614 330.48463425 23.66107727 330.49270599 22.68960571 330.50102234 C20.69087537 330.51482507 18.69212183 330.52556419 16.69335938 330.53344727 C14.68840417 330.54486098 12.6834767 330.56513984 10.67871094 330.5949707 C-7.04120687 330.85797777 -23.67354662 328.8566139 -40.4765625 322.98828125 C-41.34015381 322.69308594 -42.20374512 322.39789063 -43.09350586 322.09375 C-51.35502416 319.17747141 -59.06050486 315.45320654 -66.7265625 311.23828125 C-67.74621094 310.696875 -68.76585938 310.15546875 -69.81640625 309.59765625 C-106.6216987 289.24358848 -134.82575757 253.5002446 -146.7265625 213.23828125 C-150.08080834 200.71089287 -152.84657026 188.22839843 -152.9296875 175.21484375 C-152.93674713 174.47564194 -152.94380676 173.73644012 -152.95108032 172.97483826 C-153.17559029 142.57886044 -153.17559029 142.57886044 -149.7265625 129.23828125 C-149.52788574 128.42472168 -149.32920898 127.61116211 -149.12451172 126.77294922 C-143.2957513 103.23523578 -133.0729687 81.10721729 -117.7265625 62.23828125 C-117.27941895 61.68430664 -116.83227539 61.13033203 -116.37158203 60.55957031 C-90.5644697 28.79015568 -55.79455448 9.08337141 -15.7265625 1.23828125 C-14.84556885 1.05942383 -13.9645752 0.88056641 -13.05688477 0.69628906 C-8.69441869 0.09633405 -4.39908023 0.03648697 0 0 Z " fill="#FBDDDF" transform="translate(152.7265625,-0.23828125)"/>
<path d="M0 0 C1.32 0.66 2.64 1.32 4 2 C4 10.91 4 19.82 4 29 C3.34 29 2.68 29 2 29 C1.84144531 27.9378125 1.68289062 26.875625 1.51953125 25.78125 C-0.31181834 13.181861 -0.31181834 13.181861 -7.9609375 3.453125 C-16.01282555 -1.87489014 -25.07528308 -2.26684744 -34.51953125 -0.5390625 C-38.30817522 0.69242789 -41.75756448 2.6263375 -44.1484375 5.87109375 C-46.45166805 11.62917013 -46.11832734 18.70144733 -44.1484375 24.51171875 C-39.44494634 32.91081011 -30.21484007 35.89942222 -21.625 38.9375 C-9.65384852 43.36157609 0.02323482 47.7430573 7.16015625 58.796875 C9.43506791 64.76455023 8.91438816 72.90577577 7.125 78.9609375 C2.65167036 88.52562258 -4.2959857 94.14438717 -14 98 C-19.0204383 99.68530614 -23.66526701 100.38670786 -28.9375 100.375 C-29.66678711 100.37411377 -30.39607422 100.37322754 -31.14746094 100.37231445 C-40.27476979 100.17897253 -51.67257383 98.73417198 -59 93 C-59.56762695 90.1809082 -59.56762695 90.1809082 -59.48828125 86.80078125 C-59.47216797 85.59228516 -59.45605469 84.38378906 -59.43945312 83.13867188 C-59.39755859 81.87603516 -59.35566406 80.61339844 -59.3125 79.3125 C-59.28994141 78.03826172 -59.26738281 76.76402344 -59.24414062 75.45117188 C-59.18512262 72.2996104 -59.10282975 69.15038721 -59 66 C-58.34 66 -57.68 66 -57 66 C-56.97873047 67.01707031 -56.97873047 67.01707031 -56.95703125 68.0546875 C-56.51275164 76.72414358 -54.05868778 82.98001035 -48.8125 89.875 C-40.02476507 96.51462194 -30.67812442 96.93610469 -20 96 C-13.87492933 94.60417224 -10.15281869 92.64643539 -6 88 C-2.71212991 82.48486308 -2.25287179 77.2675755 -3 71 C-5.56210912 63.45601204 -11.79034006 59.82340624 -18.625 56.4375 C-19.53523926 55.98600586 -19.53523926 55.98600586 -20.46386719 55.52539062 C-24.31597835 53.66464209 -28.14532027 52.23564648 -32.25 51 C-41.29141592 48.17531198 -49.30642531 42.65143735 -53.9609375 34.26953125 C-56.82786138 27.89128316 -57.26058122 20.41953773 -55.34375 13.69921875 C-51.68010002 5.56654746 -45.13042853 0.2875211 -37 -3 C-25.84146685 -6.71951105 -10.49475775 -5.00969272 0 0 Z " fill="#C1171F" transform="translate(192,124)"/>
<path d="M0 0 C0.66 0 1.32 0 2 0 C2.01417969 0.67804688 2.02835938 1.35609375 2.04296875 2.0546875 C2.48724836 10.72414358 4.94131222 16.98001035 10.1875 23.875 C18.97523493 30.51462194 28.32187558 30.93610469 39 30 C41.34323969 29.36903515 43.67902059 28.70847967 46 28 C46.99 28 47.98 28 49 28 C49 28.66 49 29.32 49 30 C34.86656534 36.83777401 19.43837784 34.97358868 5 30 C2.31860352 28.81445312 2.31860352 28.81445312 0 27 C-0.56762695 24.1809082 -0.56762695 24.1809082 -0.48828125 20.80078125 C-0.47216797 19.59228516 -0.45605469 18.38378906 -0.43945312 17.13867188 C-0.39755859 15.87603516 -0.35566406 14.61339844 -0.3125 13.3125 C-0.27866211 11.40114258 -0.27866211 11.40114258 -0.24414062 9.45117188 C-0.18512262 6.2996104 -0.10282975 3.15038721 0 0 Z " fill="#C31B24" transform="translate(133,190)"/>
<path d="M0 0 C0.96921387 0.00467285 1.93842773 0.0093457 2.93701172 0.01416016 C12.13126124 0.20362115 19.02782272 2.32641136 27.25 6.4375 C27.25 15.3475 27.25 24.2575 27.25 33.4375 C26.59 33.4375 25.93 33.4375 25.25 33.4375 C25.09144531 32.3753125 24.93289062 31.313125 24.76953125 30.21875 C22.93818166 17.619361 22.93818166 17.619361 15.2890625 7.890625 C7.59257229 2.79778018 0.33990396 2.97161654 -8.75 3.4375 C-11.04620676 3.89808683 -11.04620676 3.89808683 -12.9375 4.5625 C-13.865625 4.85125 -14.79375 5.14 -15.75 5.4375 C-16.74 4.7775 -17.73 4.1175 -18.75 3.4375 C-12.33588591 0.5993298 -6.98186275 -0.0734426 0 0 Z " fill="#C5242C" transform="translate(168.75,119.5625)"/>
<path d="M0 0 C0.66 0 1.32 0 2 0 C2 2.97 2 5.94 2 9 C2.92232422 8.22462891 2.92232422 8.22462891 3.86328125 7.43359375 C4.67152344 6.77488281 5.47976562 6.11617187 6.3125 5.4375 C7.11300781 4.77621094 7.91351563 4.11492188 8.73828125 3.43359375 C9.85783203 2.72396484 9.85783203 2.72396484 11 2 C11.99 2.33 12.98 2.66 14 3 C12.8803014 4.00593243 11.7540588 5.0045849 10.625 6 C9.68527344 6.8353125 9.68527344 6.8353125 8.7265625 7.6875 C7 9 7 9 5 9 C5.86625 10.04800781 5.86625 10.04800781 6.75 11.1171875 C7.4925 12.02726562 8.235 12.93734375 9 13.875 C9.7425 14.77992187 10.485 15.68484375 11.25 16.6171875 C13 19 13 19 13 21 C12.34 21 11.68 21 11 21 C9.2734375 19.03125 9.2734375 19.03125 7.375 16.5 C6.74335938 15.6646875 6.11171875 14.829375 5.4609375 13.96875 C4.97882813 13.3190625 4.49671875 12.669375 4 12 C3.01 12.33 2.02 12.66 1 13 C0.67 15.31 0.34 17.62 0 20 C-0.66 20 -1.32 20 -2 20 C-2.22731216 13.06697907 -1.42002108 6.7831364 0 0 Z " fill="#C93139" transform="translate(175,28)"/>
<path d="M0 0 C3.0625 0.3125 3.0625 0.3125 5 1.5 C6.0625 3.3125 6.0625 3.3125 5.875 5.875 C5.0625 8.3125 5.0625 8.3125 3.0625 10.3125 C-0.5625 9.9375 -0.5625 9.9375 -3.9375 9.3125 C-4.5625 5.9375 -4.5625 5.9375 -4.9375 2.3125 C-2.9375 0.3125 -2.9375 0.3125 0 0 Z " fill="#EAA3A7" transform="translate(273.9375,242.6875)"/>
<path d="M0 0 C2.68930863 0.94125802 3.95731359 1.47526558 5.5 3.875 C5.1875 6.5625 5.1875 6.5625 4.5 8.875 C0.94706507 10.02447895 -0.29976669 9.9618937 -3.8125 8.4375 C-4.699375 7.921875 -5.58625 7.40625 -6.5 6.875 C-6.10000283 4.55501641 -5.59432121 3.01176576 -4.25 1.0625 C-2.5 -0.125 -2.5 -0.125 0 0 Z " fill="#E89BA0" transform="translate(286.5,224.125)"/>
<path d="M0 0 C0.94875 0.04125 1.8975 0.0825 2.875 0.125 C3.205 1.115 3.535 2.105 3.875 3.125 C1.895 3.125 -0.085 3.125 -2.125 3.125 C-2.125 4.115 -2.125 5.105 -2.125 6.125 C-1.01125 6.41375 0.1025 6.7025 1.25 7 C4.875 8.125 4.875 8.125 6.875 10.125 C7.5450702 16.26731015 7.5450702 16.26731015 5.3125 19.125 C1.91127009 20.52037637 -0.5905107 19.87268043 -4.125 19.125 C-4.455 18.135 -4.785 17.145 -5.125 16.125 C-2.155 16.125 0.815 16.125 3.875 16.125 C4.205 14.805 4.535 13.485 4.875 12.125 C1.575 10.475 -1.725 8.825 -5.125 7.125 C-5.125 0.205 -5.125 0.205 0 0 Z " fill="#CB373F" transform="translate(151.125,28.875)"/>
<path d="M0 0 C2.375 0.3125 2.375 0.3125 5 1 C7 4 7 4 6.75 6.5625 C6 9 6 9 4 11 C0.875 11.125 0.875 11.125 -2 11 C-2.95465783 8.83032311 -3.14401212 7.43671207 -2.3984375 5.17578125 C-1.64129615 3.4315257 -0.82390802 1.71372869 0 0 Z " fill="#E89A9F" transform="translate(126,289)"/>
<path d="M0 0 C0.66 0.33 1.32 0.66 2 1 C2 1.66 2 2.32 2 3 C-8.79930269 8.22471664 -20.35158089 8.24922378 -32 6 C-32 5.67 -32 5.34 -32 5 C-28.04 5 -24.08 5 -20 5 C-20 4.67 -20 4.34 -20 4 C-18.80761719 3.87882813 -17.61523438 3.75765625 -16.38671875 3.6328125 C-14.82026592 3.46397327 -13.25386212 3.29467868 -11.6875 3.125 C-10.90181641 3.04636719 -10.11613281 2.96773437 -9.30664062 2.88671875 C-8.54931641 2.80292969 -7.79199219 2.71914062 -7.01171875 2.6328125 C-6.31522217 2.55949707 -5.61872559 2.48618164 -4.90112305 2.41064453 C-2.68233952 2.05293784 -2.68233952 2.05293784 0 0 Z " fill="#D24F56" transform="translate(180,217)"/>
<path d="M0 0 C0.625 2.375 0.625 2.375 1 5 C-1 7 -1 7 -3.625 7.125 C-4.40875 7.08375 -5.1925 7.0425 -6 7 C-6.33 7.99 -6.66 8.98 -7 10 C-8.04449911 6.86650268 -7.93423645 6.01031744 -7 3 C-8.32 3.33 -9.64 3.66 -11 4 C-7.64918101 0.31409911 -4.96535219 -1.77334007 0 0 Z " fill="#D86369" transform="translate(53,226)"/>
<path d="M0 0 C2 2 2 2 3 5 C3.66 3.68 4.32 2.36 5 1 C5.66 1 6.32 1 7 1 C7.66 2.32 8.32 3.64 9 5 C9.66 3.35 10.32 1.7 11 0 C12.46726798 3.81489674 11.43336419 6.29011622 10 10 C9.34 10 8.68 10 8 10 C7.67 8.35 7.34 6.7 7 5 C6.34 5 5.68 5 5 5 C4.67 6.65 4.34 8.3 4 10 C3.34 10 2.68 10 2 10 C0.68373308 6.38026598 0 3.90432869 0 0 Z " fill="#D8646A" transform="translate(163,296)"/>
<path d="M0 0 C-0.61454696 3.99455527 -2.70646737 6.74466336 -5 10 C-6 8 -7 6 -8 4 C-8.99 3.34 -9.98 2.68 -11 2 C-7.12315913 0.80712589 -4.08378077 0 0 0 Z " fill="#DE777D" transform="translate(64,245)"/>
<path d="M0 0 C3.0916909 2.52956528 3.90931332 5.22454612 5 9 C4.4225 8.484375 3.845 7.96875 3.25 7.4375 C1.12172477 5.73494807 1.12172477 5.73494807 -1.25 6.3125 C-1.8275 6.539375 -2.405 6.76625 -3 7 C-2.67 8.65 -2.34 10.3 -2 12 C-2.66 12 -3.32 12 -4 12 C-7.11450382 7.84732824 -7.11450382 7.84732824 -6.6875 4.6875 C-6.460625 4.130625 -6.23375 3.57375 -6 3 C-5.67 3.66 -5.34 4.32 -5 5 C-3.35 4.67 -1.7 4.34 0 4 C0 2.68 0 1.36 0 0 Z " fill="#D8646A" transform="translate(228,281)"/>
<path d="M0 0 C0.87398437 0.48533203 0.87398437 0.48533203 1.765625 0.98046875 C0.78980469 1.11324219 -0.18601563 1.24601562 -1.19140625 1.3828125 C-3.09986328 1.64771484 -3.09986328 1.64771484 -5.046875 1.91796875 C-6.94373047 2.17900391 -6.94373047 2.17900391 -8.87890625 2.4453125 C-12.21759203 2.8843933 -12.21759203 2.8843933 -15.234375 3.98046875 C-16.224375 3.32046875 -17.214375 2.66046875 -18.234375 1.98046875 C-12.26694399 -0.57700168 -6.3266616 -2.88681587 0 0 Z " fill="#C62830" transform="translate(168.234375,121.01953125)"/>
<path d="M0 0 C1 3 1 3 0 6 C3.0745356 5.2236068 3.0745356 5.2236068 5 3 C5 4.32 5 5.64 5 7 C5.99 7 6.98 7 8 7 C8.66 5.68 9.32 4.36 10 3 C9.67 4.98 9.34 6.96 9 9 C1.25 8.125 1.25 8.125 -1 7 C-0.67 4.69 -0.34 2.38 0 0 Z " fill="#D75F65" transform="translate(290,205)"/>
<path d="M0 0 C1.65 1.65 3.3 3.3 5 5 C2.525 4.01 2.525 4.01 0 3 C0.33 4.65 0.66 6.3 1 8 C0.236875 7.835 -0.52625 7.67 -1.3125 7.5 C-4.03596236 6.90854604 -4.03596236 6.90854604 -7 7 C-4.69 4.69 -2.38 2.38 0 0 Z " fill="#D8656B" transform="translate(75,258)"/>
<path d="M0 0 C2.64 0.33 5.28 0.66 8 1 C8 1.99 8 2.98 8 4 C5.69 3.67 3.38 3.34 1 3 C0.67 2.01 0.34 1.02 0 0 Z " fill="#D04A51" transform="translate(146,45)"/>
<path d="M0 0 C1.32 0 2.64 0 4 0 C4 1.65 4 3.3 4 5 C2.68 4.67 1.36 4.34 0 4 C0 2.68 0 1.36 0 0 Z " fill="#F8D2D5" transform="translate(48,227)"/>
<path d="M0 0 C0.99 0.33 1.98 0.66 3 1 C3 3.31 3 5.62 3 8 C1.02 8.99 1.02 8.99 -1 10 C-0.649375 9.46375 -0.29875 8.9275 0.0625 8.375 C1.28924249 5.26725237 0.72856431 3.20568297 0 0 Z " fill="#C82E36" transform="translate(155,38)"/>
<path d="M0 0 C-2.33214148 1.20628008 -4.49642139 2.1654738 -7 3 C-7.99 2.34 -8.98 1.68 -10 1 C-6.21812119 -0.83691257 -4.05431692 -1.15837626 0 0 Z " fill="#CC3C43" transform="translate(160,122)"/>
</svg>
